<svg xmlns="http://www.w3.org/2000/svg" xmlns:xlink="http://www.w3.org/1999/xlink" text-rendering="geometricprecision"><defs><linearGradient id="a" x1="0" x2="1" y1=".5" y2=".5"><stop offset="0%" stop-color="#3658c7"/><stop offset="100%" stop-color="#3658c7"/></linearGradient><linearGradient id="b" x1="0" x2="1" y1=".5" y2=".5"><stop offset="0%" stop-color="#14255c"/><stop offset="100%" stop-color="#14255c"/></linearGradient><linearGradient id="c" x1="0" x2="1" y1=".5" y2=".5"><stop offset="0%"/><stop offset="100%"/></linearGradient></defs><g class="svg-clip svg-visible" transform="translate(70.954 106.954) scale(3.9764)"><path class="svg-hitbox" fill="none" d="M0 0h81v81H0z"/><svg height="81.202" viewBox="17.576 17.609 81.203 81.202" width="81.203"><path d="M60.429 22.609v15.668c9.984 1.137 17.74 9.608 17.74 19.895 0 11.064-8.967 20.031-20.029 20.031-10.288 0-18.759-7.756-19.896-17.74H22.576c1.181 18.615 16.65 33.348 35.564 33.348 19.682 0 35.639-15.955 35.639-35.639 0-18.913-14.732-34.381-33.35-35.563z" fill="url('#a')"/></svg></g><g class="svg-clip svg-visible" transform="translate(-3.281 32.719) scale(3.9764)"><path class="svg-hitbox" fill="none" d="M0 0h61v61H0z"/><svg height="61.833" viewBox="1.307 1.339 61.833 61.833" width="61.833"><path fill="url('#b')" d="M42.013 10.077v20.565L17.709 6.339 6.307 17.743 30.61 42.045H10.043v16.127H58.14V10.077z"/></svg></g><g class="svg-text svg-visible" pointer-events="fill"><path d="M411.396 333.724c614.46-2.108 698.748-2.108 1313.208 0" fill="none"/><path d="M-251.9-36.4q6 1.9 9.4 6.35 3.4 4.45 3.4 10.95 0 9.2-7.15 14.15Q-253.4 0-267.1 0h-36.2v-70h34.2q12.8 0 19.65 4.9 6.85 4.9 6.85 13.3 0 5.1-2.45 9.1t-6.85 6.3zm-19.2-21.4h-16.1v16.5h16.1q6 0 9.1-2.1 3.1-2.1 3.1-6.2t-3.1-6.15q-3.1-2.05-9.1-2.05zm2.8 45.6q6.4 0 9.65-2.1t3.25-6.5q0-8.7-12.9-8.7h-18.9v17.3h18.9zm66 13q-8.5 0-15.25-3.55t-10.55-9.85q-3.8-6.3-3.8-14.3t3.8-14.3q3.8-6.3 10.55-9.85 6.75-3.55 15.25-3.55t15.2 3.55q6.7 3.55 10.5 9.85t3.8 14.3q0 8-3.8 14.3-3.8 6.3-10.5 9.85T-202.3.8zm0-12.8q6 0 9.85-4.05 3.85-4.05 3.85-10.85t-3.85-10.85q-3.85-4.05-9.85-4.05t-9.9 4.05q-3.9 4.05-3.9 10.85t3.9 10.85q3.9 4.05 9.9 4.05zm70.4-1.6l4.2 11q-2.3 1.7-5.65 2.55-3.35.85-7.05.85-9.6 0-14.85-4.9t-5.25-14.4v-22.1h-8.3v-12h8.3v-13.1h15.6v13.1h13.4v12h-13.4v21.9q0 3.4 1.75 5.25t4.95 1.85q3.7 0 6.3-2zM-55.8 0h-17.4l-13.5-19.5h-14.9V0h-16.2v-70h30.3q9.3 0 16.15 3.1 6.85 3.1 10.55 8.8 3.7 5.7 3.7 13.5t-3.75 13.45Q-64.6-25.5-71.5-22.5L-55.8 0zm-17.7-44.6q0-5.9-3.8-9.05-3.8-3.15-11.1-3.15h-13.2v24.4h13.2q7.3 0 11.1-3.2t3.8-9zM7.3-26.7q0 .3-.3 4.2h-40.7q1.1 5 5.2 7.9 4.1 2.9 10.2 2.9 4.2 0 7.45-1.25t6.05-3.95l8.3 9Q-4.1.8-18.7.8q-9.1 0-16.1-3.55-7-3.55-10.8-9.85-3.8-6.3-3.8-14.3 0-7.9 3.75-14.25t10.3-9.9q6.55-3.55 14.65-3.55 7.9 0 14.3 3.4t10.05 9.75Q7.3-35.1 7.3-26.7zm-27.9-16.1q-5.3 0-8.9 3-3.6 3-4.4 8.2h26.5q-.8-5.1-4.4-8.15-3.6-3.05-8.8-3.05zm79-11h14.8V-9q0 14.8-7.7 22-7.7 7.2-22.5 7.2-7.8 0-14.8-1.9-7-1.9-11.6-5.5l6.2-11.2q3.4 2.8 8.6 4.45Q36.6 7.7 41.8 7.7q8.1 0 11.95-3.65Q57.6.4 57.6-7v-2.3q-6.1 6.7-17 6.7-7.4 0-13.55-3.25T17.3-15q-3.6-5.9-3.6-13.6 0-7.7 3.6-13.6 3.6-5.9 9.75-9.15T40.6-54.6q11.7 0 17.8 7.7v-6.9zM43.7-15.4q6.2 0 10.15-3.65t3.95-9.55q0-5.9-3.95-9.55Q49.9-41.8 43.7-41.8t-10.2 3.65q-4 3.65-4 9.55t4 9.55q4 3.65 10.2 3.65zM87.7 0v-53.8h15.6V0H87.7zm7.8-61.3q-4.3 0-7-2.5T85.8-70q0-3.7 2.7-6.2t7-2.5q4.3 0 7 2.4t2.7 6q0 3.9-2.7 6.45-2.7 2.55-7 2.55zM135.9.8q-6.7 0-13.1-1.65Q116.4-2.5 112.6-5l5.2-11.2q3.6 2.3 8.7 3.75 5.1 1.45 10 1.45 9.9 0 9.9-4.9 0-2.3-2.7-3.3t-8.3-1.7q-6.6-1-10.9-2.3-4.3-1.3-7.45-4.6-3.15-3.3-3.15-9.4 0-5.1 2.95-9.05 2.95-3.95 8.6-6.15 5.65-2.2 13.35-2.2 5.7 0 11.35 1.25 5.65 1.25 9.35 3.45l-5.2 11.1q-7.1-4-15.5-4-5 0-7.5 1.4t-2.5 3.6q0 2.5 2.7 3.5t8.6 1.9q6.6 1.1 10.8 2.35 4.2 1.25 7.3 4.55 3.1 3.3 3.1 9.2 0 5-3 8.9-3 3.9-8.75 6.05T135.9.8zm65.5-14.4l4.2 11q-2.3 1.7-5.65 2.55-3.35.85-7.05.85-9.6 0-14.85-4.9t-5.25-14.4v-22.1h-8.3v-12h8.3v-13.1h15.6v13.1h13.4v12h-13.4v21.9q0 3.4 1.75 5.25t4.95 1.85q3.7 0 6.3-2zm27.9-33.1q2.8-3.9 7.55-5.9 4.75-2 10.95-2v14.4q-2.6-.2-3.5-.2-6.7 0-10.5 3.75T230-25.4V0h-15.6v-53.8h14.9v7.1zm68.1-7.1h15L288.1 3.3q-3.7 9.3-9.15 13.1-5.45 3.8-13.15 3.8-4.2 0-8.3-1.3-4.1-1.3-6.7-3.6l5.7-11.1q1.8 1.6 4.15 2.5 2.35.9 4.65.9 3.2 0 5.2-1.55T274.1.9l.2-.5L251-53.8h16.1l15.1 36.5 15.2-36.5z" data-dx="0" data-dy="91.425" data-font="Montserrat" data-font-scale="contain" data-font-size="100" data-font-src="/Content/clientfonts/montserrat-bold.woff" data-letterspacing="0" data-offset="0" data-side="left" data-text-anchor="middle" data-textpath="BotRegistry" data-xmlspace="preserve" fill="url('#c')" transform="translate(1068 311.65) scale(2.1072)"/></g></svg>
