<svg id="workspace" style="text-rendering: geometricprecision;" xmlns="http://www.w3.org/2000/svg" xmlns:xlink="http://www.w3.org/1999/xlink">
    <defs>
        <linearGradient id="linearGradientSk6jv17u51c" x1="0" x2="1" y1="0.5" y2="0.5">
            <stop offset="0%" stop-color="#3658c7"/>
            <stop offset="100%" stop-color="#3658c7"/>
        </linearGradient>
        <linearGradient id="linearGradientSk6jv17u51l" x1="0" x2="1" y1="0.5" y2="0.5">
            <stop offset="0%" stop-color="#14255c"/>
            <stop offset="100%" stop-color="#14255c"/>
        </linearGradient>
        <linearGradient id="linearGradientSk6jv17u51v" x1="0" x2="1" y1="0.5" y2="0.5">
            <stop offset="0%" stop-color="#3658c7"/>
            <stop offset="100%" stop-color="#3658c7"/>
        </linearGradient>
        <linearGradient id="linearGradientSk6jv17u51y" x1="0" x2="1" y1="0.5" y2="0.5">
            <stop offset="0%" stop-color="#14255c"/>
            <stop offset="100%" stop-color="#14255c"/>
        </linearGradient>
        <linearGradient id="linearGradientSk6jv17u524" x1="0" x2="1" y1="0.5" y2="0.5">
            <stop offset="0%" stop-color="#3658c7"/>
            <stop offset="100%" stop-color="#3658c7"/>
        </linearGradient>
        <linearGradient id="linearGradientSk6jv17u527" x1="0" x2="1" y1="0.5" y2="0.5">
            <stop offset="0%" stop-color="#14255c"/>
            <stop offset="100%" stop-color="#14255c"/>
        </linearGradient>
        <linearGradient id="linearGradientSk6jv17u52d" x1="0" x2="1" y1="0.5" y2="0.5">
            <stop offset="0%" stop-color="#3658c7"/>
            <stop offset="100%" stop-color="#3658c7"/>
        </linearGradient>
        <linearGradient id="linearGradientSk6jv17u52g" x1="0" x2="1" y1="0.5" y2="0.5">
            <stop offset="0%" stop-color="#14255c"/>
            <stop offset="100%" stop-color="#14255c"/>
        </linearGradient>
        <linearGradient id="linearGradientSk6jv17u52j" x1="0" x2="1" y1="0.5" y2="0.5">
            <stop offset="0%" stop-color="#000000"/>
            <stop offset="100%" stop-color="#000000"/>
        </linearGradient>
    </defs>
    <g class="svg-clip svg-visible" style="cursor: move; opacity: 1;" transform="matrix(3.9764,0,0,3.9764,70.9542,106.9542)">
        <rect class="svg-hitbox" fill="none" height="81" style="" width="81" x="0" y="0"/>
        <svg height="81.202" viewBox="17.576,17.609,81.203,81.202" width="81.203">
            <defs/>
            <g>
                <path d="M60.429,22.609v15.668c9.984,1.137,17.74,9.608,17.74,19.895c0,11.064-8.967,20.031-20.029,20.031   c-10.288,0-18.759-7.756-19.896-17.74H22.576c1.181,18.615,16.65,33.348,35.564,33.348c19.682,0,35.639-15.955,35.639-35.639   C93.779,39.259,79.047,23.791,60.429,22.609z" fill="url('#linearGradientSk6jv17u52d')" stroke="none" style=""/>
            </g>
        </svg>
    </g>
    <g class="svg-clip svg-visible" style="cursor: move; opacity: 1;" transform="matrix(3.9764,0,0,3.9764,-3.2814,32.7186)">
        <rect class="svg-hitbox" fill="none" height="61" style="" width="61" x="0" y="0"/>
        <svg height="61.833" viewBox="1.3070000000000004,1.3390000000000004,61.833,61.833" width="61.833">
            <desc>Created with Snap</desc>
            <g>
                <polygon fill="url('#linearGradientSk6jv17u52g')" points="42.013,10.077 42.013,30.642 17.709,6.339 6.307,17.743 30.61,42.045 10.043,42.045 10.043,58.172   58.14,58.172 58.14,10.077 " stroke="none" style=""/>
            </g>
        </svg>
    </g>
    <g class="svg-text svg-visible" style="pointer-events: fill; cursor: move; opacity: 1;" transform="matrix(2.1072,0,0,2.1072,1068,119)">
        <path d="M-311.6,101.9 C-20,100.9 20,100.9 311.6,101.9" fill="none" style=""/>
        <path d="M-251.90000000000003-36.4Q-245.90000000000003-34.5 -242.50000000000003-30.05Q-239.10000000000002-25.6 -239.10000000000002-19.1L-239.10000000000002-19.1Q-239.10000000000002-9.9 -246.25000000000003-4.95Q-253.40000000000003 0 -267.1 0L-267.1 0L-303.3 0L-303.3-70L-269.1-70Q-256.3-70 -249.45000000000002-65.1Q-242.60000000000002-60.2 -242.60000000000002-51.8L-242.60000000000002-51.8Q-242.60000000000002-46.7 -245.05-42.7Q-247.50000000000003-38.7 -251.90000000000003-36.4L-251.90000000000003-36.4ZM-271.1-57.8L-287.20000000000005-57.8L-287.20000000000005-41.3L-271.1-41.3Q-265.1-41.3 -262-43.4Q-258.90000000000003-45.5 -258.90000000000003-49.6L-258.90000000000003-49.6Q-258.90000000000003-53.7 -262-55.75Q-265.1-57.8 -271.1-57.8L-271.1-57.8ZM-268.3-12.2Q-261.90000000000003-12.2 -258.65000000000003-14.3Q-255.40000000000003-16.4 -255.40000000000003-20.8L-255.40000000000003-20.8Q-255.40000000000003-29.5 -268.3-29.5L-268.3-29.5L-287.20000000000005-29.5L-287.20000000000005-12.2L-268.3-12.2ZM-202.3 0.8Q-210.8 0.8 -217.55-2.75Q-224.3-6.3 -228.10000000000002-12.6Q-231.90000000000003-18.9 -231.90000000000003-26.9L-231.90000000000003-26.9Q-231.90000000000003-34.9 -228.10000000000002-41.2Q-224.3-47.5 -217.55-51.05Q-210.8-54.6 -202.3-54.6L-202.3-54.6Q-193.8-54.6 -187.10000000000002-51.05Q-180.40000000000003-47.5 -176.60000000000002-41.2Q-172.8-34.9 -172.8-26.9L-172.8-26.9Q-172.8-18.9 -176.60000000000002-12.6Q-180.40000000000003-6.3 -187.10000000000002-2.75Q-193.8 0.8 -202.3 0.8L-202.3 0.8ZM-202.3-12Q-196.3-12 -192.45000000000002-16.05Q-188.60000000000002-20.1 -188.60000000000002-26.9L-188.60000000000002-26.9Q-188.60000000000002-33.7 -192.45000000000002-37.75Q-196.3-41.8 -202.3-41.8L-202.3-41.8Q-208.3-41.8 -212.20000000000002-37.75Q-216.10000000000002-33.7 -216.10000000000002-26.9L-216.10000000000002-26.9Q-216.10000000000002-20.1 -212.20000000000002-16.05Q-208.3-12 -202.3-12L-202.3-12ZM-131.90000000000003-13.6L-127.70000000000002-2.6Q-130.00000000000003-0.9 -133.35000000000002-0.05Q-136.70000000000002 0.8 -140.40000000000003 0.8L-140.40000000000003 0.8Q-150.00000000000003 0.8 -155.25000000000003-4.1Q-160.50000000000003-9 -160.50000000000003-18.5L-160.50000000000003-18.5L-160.50000000000003-40.6L-168.8-40.6L-168.8-52.6L-160.50000000000003-52.6L-160.50000000000003-65.7L-144.90000000000003-65.7L-144.90000000000003-52.6L-131.50000000000003-52.6L-131.50000000000003-40.6L-144.90000000000003-40.6L-144.90000000000003-18.7Q-144.90000000000003-15.3 -143.15000000000003-13.45Q-141.40000000000003-11.6 -138.20000000000002-11.6L-138.20000000000002-11.6Q-134.50000000000003-11.6 -131.90000000000003-13.6L-131.90000000000003-13.6ZM-55.800000000000026 0L-73.20000000000002 0L-86.70000000000002-19.5L-87.50000000000003-19.5L-101.60000000000002-19.5L-101.60000000000002 0L-117.80000000000003 0L-117.80000000000003-70L-87.50000000000003-70Q-78.20000000000002-70 -71.35000000000002-66.9Q-64.50000000000003-63.8 -60.800000000000026-58.1Q-57.10000000000002-52.4 -57.10000000000002-44.6L-57.10000000000002-44.6Q-57.10000000000002-36.8 -60.85000000000002-31.15Q-64.60000000000002-25.5 -71.50000000000003-22.5L-71.50000000000003-22.5L-55.800000000000026 0ZM-73.50000000000003-44.6Q-73.50000000000003-50.5 -77.30000000000003-53.65Q-81.10000000000002-56.8 -88.40000000000002-56.8L-88.40000000000002-56.8L-101.60000000000002-56.8L-101.60000000000002-32.4L-88.40000000000002-32.4Q-81.10000000000002-32.4 -77.30000000000003-35.6Q-73.50000000000003-38.8 -73.50000000000003-44.6L-73.50000000000003-44.6ZM 7.299999999999962-26.7Q 7.299999999999962-26.4  6.9999999999999645-22.5L 6.9999999999999645-22.5L-33.70000000000004-22.5Q-32.60000000000004-17.5 -28.500000000000036-14.6Q-24.400000000000038-11.7 -18.30000000000004-11.7L-18.30000000000004-11.7Q-14.100000000000037-11.7 -10.850000000000037-12.95Q-7.600000000000037-14.2 -4.80000000000004-16.9L-4.80000000000004-16.9L 3.4999999999999645-7.9Q-4.100000000000037 0.8 -18.70000000000004 0.8L-18.70000000000004 0.8Q-27.800000000000036 0.8 -34.80000000000004-2.75Q-41.80000000000004-6.3 -45.60000000000004-12.6Q-49.400000000000034-18.9 -49.400000000000034-26.9L-49.400000000000034-26.9Q-49.400000000000034-34.8 -45.650000000000034-41.15Q-41.900000000000034-47.5 -35.35000000000004-51.05Q-28.800000000000036-54.6 -20.70000000000004-54.6L-20.70000000000004-54.6Q-12.80000000000004-54.6 -6.400000000000034-51.2Q-3.552713678800501e-14-47.8  3.649999999999963-41.45Q 7.299999999999962-35.1  7.299999999999962-26.7L 7.299999999999962-26.7ZM-20.600000000000037-42.8Q-25.900000000000038-42.8 -29.500000000000036-39.8Q-33.10000000000004-36.8 -33.900000000000034-31.6L-33.900000000000034-31.6L-7.400000000000034-31.6Q-8.200000000000038-36.7 -11.80000000000004-39.75Q-15.400000000000034-42.8 -20.600000000000037-42.8L-20.600000000000037-42.8ZM 58.39999999999994-53.8L 73.19999999999995-53.8L 73.19999999999995-9Q 73.19999999999995 5.8  65.49999999999994 13Q 57.79999999999994 20.2  42.99999999999994 20.2L 42.99999999999994 20.2Q 35.199999999999946 20.2  28.199999999999942 18.3Q 21.199999999999942 16.4  16.599999999999945 12.8L 16.599999999999945 12.8L 22.799999999999944 1.6Q 26.199999999999942 4.4  31.39999999999994 6.05Q 36.599999999999945 7.7  41.79999999999994 7.7L 41.79999999999994 7.7Q 49.89999999999994 7.7  53.74999999999994 4.05Q 57.599999999999945 0.4  57.599999999999945-7L 57.599999999999945-7L 57.599999999999945-9.3Q 51.49999999999994-2.6  40.599999999999945-2.6L 40.599999999999945-2.6Q 33.199999999999946-2.6  27.049999999999944-5.85Q 20.89999999999994-9.1  17.299999999999944-15Q 13.699999999999942-20.9  13.699999999999942-28.6L 13.699999999999942-28.6Q 13.699999999999942-36.3  17.299999999999944-42.2Q 20.89999999999994-48.1  27.049999999999944-51.35Q 33.199999999999946-54.6  40.599999999999945-54.6L 40.599999999999945-54.6Q 52.29999999999994-54.6  58.39999999999994-46.9L 58.39999999999994-46.9L 58.39999999999994-53.8ZM 43.699999999999946-15.4Q 49.89999999999994-15.4  53.849999999999945-19.05Q 57.79999999999994-22.7  57.79999999999994-28.6L 57.79999999999994-28.6Q 57.79999999999994-34.5  53.849999999999945-38.15Q 49.89999999999994-41.8  43.699999999999946-41.8L 43.699999999999946-41.8Q 37.49999999999994-41.8  33.49999999999994-38.15Q 29.499999999999943-34.5  29.499999999999943-28.6L 29.499999999999943-28.6Q 29.499999999999943-22.7  33.49999999999994-19.05Q 37.49999999999994-15.4  43.699999999999946-15.4L 43.699999999999946-15.4ZM 87.69999999999997 0L 87.69999999999997-53.8L 103.29999999999997-53.8L 103.29999999999997 0L 87.69999999999997 0ZM 95.49999999999997-61.3Q 91.19999999999997-61.3  88.49999999999997-63.8Q 85.79999999999997-66.3  85.79999999999997-70L 85.79999999999997-70Q 85.79999999999997-73.7  88.49999999999997-76.2Q 91.19999999999997-78.7  95.49999999999997-78.7L 95.49999999999997-78.7Q 99.79999999999997-78.7  102.49999999999997-76.3Q 105.19999999999997-73.9  105.19999999999997-70.3L 105.19999999999997-70.3Q 105.19999999999997-66.4  102.49999999999997-63.85Q 99.79999999999997-61.3  95.49999999999997-61.3L 95.49999999999997-61.3ZM 135.89999999999995 0.8Q 129.19999999999996 0.8  122.79999999999995-0.85Q 116.39999999999995-2.5  112.59999999999995-5L 112.59999999999995-5L 117.79999999999995-16.2Q 121.39999999999995-13.9  126.49999999999996-12.45Q 131.59999999999997-11  136.49999999999994-11L 136.49999999999994-11Q 146.39999999999995-11  146.39999999999995-15.9L 146.39999999999995-15.9Q 146.39999999999995-18.2  143.69999999999996-19.2Q 140.99999999999994-20.2  135.39999999999995-20.9L 135.39999999999995-20.9Q 128.79999999999995-21.9  124.49999999999996-23.2Q 120.19999999999995-24.5  117.04999999999995-27.8Q 113.89999999999995-31.1  113.89999999999995-37.2L 113.89999999999995-37.2Q 113.89999999999995-42.3  116.84999999999995-46.25Q 119.79999999999995-50.2  125.44999999999995-52.4Q 131.09999999999997-54.6  138.79999999999995-54.6L 138.79999999999995-54.6Q 144.49999999999994-54.6  150.14999999999995-53.35Q 155.79999999999995-52.1  159.49999999999994-49.9L 159.49999999999994-49.9L 154.29999999999995-38.8Q 147.19999999999996-42.8  138.79999999999995-42.8L 138.79999999999995-42.8Q 133.79999999999995-42.8  131.29999999999995-41.4Q 128.79999999999995-40  128.79999999999995-37.8L 128.79999999999995-37.8Q 128.79999999999995-35.3  131.49999999999994-34.3Q 134.19999999999996-33.3  140.09999999999997-32.4L 140.09999999999997-32.4Q 146.69999999999996-31.3  150.89999999999995-30.05Q 155.09999999999997-28.8  158.19999999999996-25.5Q 161.29999999999995-22.2  161.29999999999995-16.3L 161.29999999999995-16.3Q 161.29999999999995-11.3  158.29999999999995-7.4Q 155.29999999999995-3.5  149.54999999999995-1.35Q 143.79999999999995 0.8  135.89999999999995 0.8L 135.89999999999995 0.8ZM 201.39999999999998-13.6L 205.6-2.6Q 203.29999999999998-0.9  199.95-0.05Q 196.6 0.8  192.89999999999998 0.8L 192.89999999999998 0.8Q 183.29999999999998 0.8  178.04999999999998-4.1Q 172.79999999999998-9  172.79999999999998-18.5L 172.79999999999998-18.5L 172.79999999999998-40.6L 164.5-40.6L 164.5-52.6L 172.79999999999998-52.6L 172.79999999999998-65.7L 188.39999999999998-65.7L 188.39999999999998-52.6L 201.79999999999998-52.6L 201.79999999999998-40.6L 188.39999999999998-40.6L 188.39999999999998-18.7Q 188.39999999999998-15.3  190.14999999999998-13.45Q 191.89999999999998-11.6  195.1-11.6L 195.1-11.6Q 198.79999999999998-11.6  201.39999999999998-13.6L 201.39999999999998-13.6ZM 229.3-46.7Q 232.10000000000002-50.6  236.85000000000002-52.6Q 241.60000000000002-54.6  247.8-54.6L 247.8-54.6L 247.8-40.2Q 245.20000000000002-40.4  244.3-40.4L 244.3-40.4Q 237.60000000000002-40.4  233.8-36.65Q 230.00000000000003-32.9  230.00000000000003-25.4L 230.00000000000003-25.4L 230.00000000000003 0L 214.4 0L 214.4-53.8L 229.3-53.8L 229.3-46.7ZM 297.4-53.8L 312.4-53.8L 288.09999999999997 3.3Q 284.4 12.6  278.95 16.4Q 273.5 20.2  265.79999999999995 20.2L 265.79999999999995 20.2Q 261.59999999999997 20.2  257.5 18.9Q 253.39999999999998 17.6 250.79999999999998 15.3L 250.79999999999998 15.3L 256.5 4.2Q 258.29999999999995 5.8  260.65 6.7Q 263 7.6  265.29999999999995 7.6L 265.29999999999995 7.6Q 268.5 7.6  270.5 6.05Q 272.5 4.5  274.09999999999997 0.9L 274.09999999999997 0.9L 274.29999999999995 0.4L 250.99999999999997-53.8L 267.09999999999997-53.8L 282.2-17.3L 297.4-53.8Z" data-dx="0" data-dy="91.42500000000001" data-font="Montserrat" data-font-scale="contain" data-font-size="100" data-font-src="/Content/clientfonts/montserrat-bold.woff" data-href="" data-letterspacing="0" data-offset="0" data-side="left" data-text-anchor="middle" data-textpath="BotRegistry" data-xmlspace="preserve" fill="url('#linearGradientSk6jv17u52j')" transform="translate(0,91.42500000000001)"/>
        <rect height="0" width="0" x="0" y="0"/>
    </g>
</svg>
