<?xml version="1.0" encoding="UTF-8" standalone="no"?>
<svg
   xmlns:dc="http://purl.org/dc/elements/1.1/"
   xmlns:cc="http://creativecommons.org/ns#"
   xmlns:rdf="http://www.w3.org/1999/02/22-rdf-syntax-ns#"
   xmlns:svg="http://www.w3.org/2000/svg"
   xmlns="http://www.w3.org/2000/svg"
   xmlns:xlink="http://www.w3.org/1999/xlink"
   xmlns:sodipodi="http://sodipodi.sourceforge.net/DTD/sodipodi-0.dtd"
   xmlns:inkscape="http://www.inkscape.org/namespaces/inkscape"
   text-rendering="geometricprecision"
   version="1.1"
   id="svg3797"
   sodipodi:docname="logo.svg"
   width="50.017761mm"
   height="13.175212mm"
   inkscape:version="0.92.4 (5da689c313, 2019-01-14)"
   inkscape:export-filename="C:\Users\alister\Desktop\logo.png"
   inkscape:export-xdpi="14.13"
   inkscape:export-ydpi="14.13"
   viewBox="0 0 50.017761 49.793031">
  <metadata
     id="metadata3801">
    <rdf:RDF>
      <cc:Work
         rdf:about="">
        <dc:format>image/svg+xml</dc:format>
        <dc:type
           rdf:resource="http://purl.org/dc/dcmitype/StillImage" />
        <dc:title></dc:title>
      </cc:Work>
    </rdf:RDF>
  </metadata>
  <sodipodi:namedview
     pagecolor="#4182e4"
     bordercolor="#666666"
     borderopacity="1"
     objecttolerance="10"
     gridtolerance="10"
     guidetolerance="10"
     inkscape:pageopacity="0"
     inkscape:pageshadow="2"
     inkscape:window-width="1876"
     inkscape:window-height="1083"
     id="namedview3799"
     showgrid="false"
     units="mm"
     inkscape:pagecheckerboard="true"
     fit-margin-top="0"
     fit-margin-left="0"
     fit-margin-right="0"
     fit-margin-bottom="0"
     inkscape:zoom="4"
     inkscape:cx="144.61117"
     inkscape:cy="-18.222787"
     inkscape:window-x="440"
     inkscape:window-y="76"
     inkscape:window-maximized="0"
     inkscape:current-layer="svg3797" />
  <defs
     id="defs3773">
    <linearGradient
       id="a"
       x1="22.575842"
       x2="93.778343"
       y1="58.210407"
       y2="58.210407"
       gradientTransform="scale(1.000007,0.99999298)"
       gradientUnits="userSpaceOnUse">
      <stop
         offset="0%"
         stop-color="#3658c7"
         id="stop3758" />
      <stop
         offset="100%"
         stop-color="#3658c7"
         id="stop3760" />
    </linearGradient>
    <linearGradient
       id="b"
       x1="6.3070002"
       x2="58.139999"
       y1="32.255501"
       y2="32.255501"
       gradientUnits="userSpaceOnUse">
      <stop
         offset="0%"
         stop-color="#14255c"
         id="stop3763" />
      <stop
         offset="100%"
         stop-color="#14255c"
         id="stop3765" />
    </linearGradient>
    <linearGradient
       id="c"
       x1="-121.55868"
       x2="125.20584"
       y1="-72.981422"
       y2="-72.981422"
       gradientTransform="scale(2.4950912,0.40078695)"
       gradientUnits="userSpaceOnUse">
      <stop
         offset="0%"
         id="stop3768" />
      <stop
         offset="100%"
         id="stop3770" />
    </linearGradient>
    <linearGradient
       inkscape:collect="always"
       xlink:href="#a"
       id="linearGradient3845"
       gradientUnits="userSpaceOnUse"
       gradientTransform="scale(1.000007,0.99999298)"
       x1="22.575842"
       y1="58.210407"
       x2="93.778343"
       y2="58.210407" />
    <linearGradient
       inkscape:collect="always"
       xlink:href="#b"
       id="linearGradient3847"
       gradientUnits="userSpaceOnUse"
       x1="6.3070002"
       y1="32.255501"
       x2="58.139999"
       y2="32.255501" />
  </defs>
  <g
     transform="matrix(0.11132779,0,0,0.11132779,-70.217756,2.0381934)"
     inkscape:export-ydpi="126.95"
     inkscape:export-xdpi="126.95"
     id="g3831">
    <g
       class="svg-clip svg-visible"
       transform="matrix(3.878591,0,0,3.9329442,79.330795,78.311636)"
       id="g3821">
      <path
         class="svg-hitbox"
         d="M 0,0 H 81 V 81 H 0 Z"
         id="path3815"
         inkscape:connector-curvature="0"
         style="fill:none" />
      <svg
         height="81.202003"
         viewBox="17.576 17.609 81.203 81.202"
         width="81.203003"
         version="1.1"
         id="svg3819">
        <path
           d="m 60.429,22.609 v 15.668 c 9.984,1.137 17.74,9.608 17.74,19.895 0,11.064 -8.967,20.031 -20.029,20.031 -10.288,0 -18.759,-7.756 -19.896,-17.74 H 22.576 c 1.181,18.615 16.65,33.348 35.564,33.348 19.682,0 35.639,-15.955 35.639,-35.639 0,-18.913 -14.732,-34.381 -33.35,-35.563 z"
           id="path3817"
           inkscape:connector-curvature="0"
           style="fill:url(#linearGradient3845)" />
      </svg>
    </g>
    <g
       class="svg-clip svg-visible"
       transform="scale(3.9764)"
       id="g3829">
      <path
         class="svg-hitbox"
         d="M 0,0 H 61 V 61 H 0 Z"
         id="path3823"
         inkscape:connector-curvature="0"
         style="fill:none" />
      <svg
         height="61.833"
         viewBox="1.307 1.339 61.833 61.833"
         width="61.833"
         version="1.1"
         id="svg3827">
        <path
           d="M 42.013,10.077 V 30.642 L 17.709,6.339 6.307,17.743 30.61,42.045 H 10.043 V 58.172 H 58.14 V 10.077 Z"
           id="path3825"
           inkscape:connector-curvature="0"
           style="fill:url(#linearGradient3847)" />
      </svg>
    </g>
  </g>
  <g
     inkscape:export-ydpi="126.95"
     inkscape:export-xdpi="126.95"
     transform="matrix(0.11132779,0,0,0.11132779,-73.369776,-0.81011469)"
     id="g3837"
     pointer-events="fill"
     class="svg-text svg-visible"
     style="fill:#ffffff">
    <path
       style="fill:#ffffff"
       inkscape:connector-curvature="0"
       id="path3833"
       d="m 411.396,333.724 c 614.46,-2.108 698.748,-2.108 1313.208,0" />
    <path
       style="fill:#ffffff"
       inkscape:connector-curvature="0"
       id="path3835"
       transform="matrix(2.1072,0,0,2.1072,1068,311.65)"
       data-xmlspace="preserve"
       data-textpath="BotRegistry"
       data-text-anchor="middle"
       data-side="left"
       data-offset="0"
       data-letterspacing="0"
       data-font-src="/Content/clientfonts/montserrat-bold.woff"
       data-font-size="100"
       data-font-scale="contain"
       data-font="Montserrat"
       data-dy="91.425"
       data-dx="0"
       d="m -251.9,-36.4 q 6,1.9 9.4,6.35 3.4,4.45 3.4,10.95 0,9.2 -7.15,14.15 Q -253.4,0 -267.1,0 h -36.2 v -70 h 34.2 q 12.8,0 19.65,4.9 6.85,4.9 6.85,13.3 0,5.1 -2.45,9.1 -2.45,4 -6.85,6.3 z m -19.2,-21.4 h -16.1 v 16.5 h 16.1 q 6,0 9.1,-2.1 3.1,-2.1 3.1,-6.2 0,-4.1 -3.1,-6.15 -3.1,-2.05 -9.1,-2.05 z m 2.8,45.6 q 6.4,0 9.65,-2.1 3.25,-2.1 3.25,-6.5 0,-8.7 -12.9,-8.7 h -18.9 v 17.3 z m 66,13 q -8.5,0 -15.25,-3.55 -6.75,-3.55 -10.55,-9.85 -3.8,-6.3 -3.8,-14.3 0,-8 3.8,-14.3 3.8,-6.3 10.55,-9.85 6.75,-3.55 15.25,-3.55 8.5,0 15.2,3.55 6.7,3.55 10.5,9.85 3.8,6.3 3.8,14.3 0,8 -3.8,14.3 -3.8,6.3 -10.5,9.85 -6.7,3.55 -15.2,3.55 z m 0,-12.8 q 6,0 9.85,-4.05 3.85,-4.05 3.85,-10.85 0,-6.8 -3.85,-10.85 -3.85,-4.05 -9.85,-4.05 -6,0 -9.9,4.05 -3.9,4.05 -3.9,10.85 0,6.8 3.9,10.85 3.9,4.05 9.9,4.05 z m 70.4,-1.6 4.2,11 q -2.3,1.7 -5.65,2.55 -3.35,0.85 -7.05,0.85 -9.6,0 -14.85,-4.9 -5.25,-4.9 -5.25,-14.4 v -22.1 h -8.3 v -12 h 8.3 v -13.1 h 15.6 v 13.1 h 13.4 v 12 h -13.4 v 21.9 q 0,3.4 1.75,5.25 1.75,1.85 4.95,1.85 3.7,0 6.3,-2 z M -55.8,0 h -17.4 l -13.5,-19.5 h -14.9 V 0 h -16.2 v -70 h 30.3 q 9.3,0 16.15,3.1 6.85,3.1 10.55,8.8 3.7,5.7 3.7,13.5 0,7.8 -3.75,13.45 -3.75,5.65 -10.65,8.65 z m -17.7,-44.6 q 0,-5.9 -3.8,-9.05 -3.8,-3.15 -11.1,-3.15 h -13.2 v 24.4 h 13.2 q 7.3,0 11.1,-3.2 3.8,-3.2 3.8,-9 z m 80.8,17.9 q 0,0.3 -0.3,4.2 h -40.7 q 1.1,5 5.2,7.9 4.1,2.9 10.2,2.9 4.2,0 7.45,-1.25 3.25,-1.25 6.05,-3.95 l 8.3,9 q -7.6,8.7 -22.2,8.7 -9.1,0 -16.1,-3.55 -7,-3.55 -10.8,-9.85 -3.8,-6.3 -3.8,-14.3 0,-7.9 3.75,-14.25 3.75,-6.35 10.3,-9.9 6.55,-3.55 14.65,-3.55 7.9,0 14.3,3.4 6.4,3.4 10.05,9.75 3.65,6.35 3.65,14.75 z m -27.9,-16.1 q -5.3,0 -8.9,3 -3.6,3 -4.4,8.2 h 26.5 q -0.8,-5.1 -4.4,-8.15 -3.6,-3.05 -8.8,-3.05 z m 79,-11 H 73.2 V -9 q 0,14.8 -7.7,22 -7.7,7.2 -22.5,7.2 -7.8,0 -14.8,-1.9 -7,-1.9 -11.6,-5.5 L 22.8,1.6 q 3.4,2.8 8.6,4.45 5.2,1.65 10.4,1.65 8.1,0 11.95,-3.65 Q 57.6,0.4 57.6,-7 v -2.3 q -6.1,6.7 -17,6.7 -7.4,0 -13.55,-3.25 Q 20.9,-9.1 17.3,-15 q -3.6,-5.9 -3.6,-13.6 0,-7.7 3.6,-13.6 3.6,-5.9 9.75,-9.15 6.15,-3.25 13.55,-3.25 11.7,0 17.8,7.7 z m -14.7,38.4 q 6.2,0 10.15,-3.65 3.95,-3.65 3.95,-9.55 0,-5.9 -3.95,-9.55 -3.95,-3.65 -10.15,-3.65 -6.2,0 -10.2,3.65 -4,3.65 -4,9.55 0,5.9 4,9.55 4,3.65 10.2,3.65 z M 87.7,0 v -53.8 h 15.6 V 0 Z m 7.8,-61.3 q -4.3,0 -7,-2.5 -2.7,-2.5 -2.7,-6.2 0,-3.7 2.7,-6.2 2.7,-2.5 7,-2.5 4.3,0 7,2.4 2.7,2.4 2.7,6 0,3.9 -2.7,6.45 -2.7,2.55 -7,2.55 z m 40.4,62.1 q -6.7,0 -13.1,-1.65 Q 116.4,-2.5 112.6,-5 l 5.2,-11.2 q 3.6,2.3 8.7,3.75 5.1,1.45 10,1.45 9.9,0 9.9,-4.9 0,-2.3 -2.7,-3.3 -2.7,-1 -8.3,-1.7 -6.6,-1 -10.9,-2.3 -4.3,-1.3 -7.45,-4.6 -3.15,-3.3 -3.15,-9.4 0,-5.1 2.95,-9.05 2.95,-3.95 8.6,-6.15 5.65,-2.2 13.35,-2.2 5.7,0 11.35,1.25 5.65,1.25 9.35,3.45 l -5.2,11.1 q -7.1,-4 -15.5,-4 -5,0 -7.5,1.4 -2.5,1.4 -2.5,3.6 0,2.5 2.7,3.5 2.7,1 8.6,1.9 6.6,1.1 10.8,2.35 4.2,1.25 7.3,4.55 3.1,3.3 3.1,9.2 0,5 -3,8.9 -3,3.9 -8.75,6.05 Q 143.8,0.8 135.9,0.8 Z m 65.5,-14.4 4.2,11 q -2.3,1.7 -5.65,2.55 -3.35,0.85 -7.05,0.85 -9.6,0 -14.85,-4.9 -5.25,-4.9 -5.25,-14.4 v -22.1 h -8.3 v -12 h 8.3 v -13.1 h 15.6 v 13.1 h 13.4 v 12 h -13.4 v 21.9 q 0,3.4 1.75,5.25 1.75,1.85 4.95,1.85 3.7,0 6.3,-2 z m 27.9,-33.1 q 2.8,-3.9 7.55,-5.9 4.75,-2 10.95,-2 v 14.4 q -2.6,-0.2 -3.5,-0.2 -6.7,0 -10.5,3.75 -3.8,3.75 -3.8,11.25 V 0 h -15.6 v -53.8 h 14.9 z m 68.1,-7.1 h 15 L 288.1,3.3 q -3.7,9.3 -9.15,13.1 -5.45,3.8 -13.15,3.8 -4.2,0 -8.3,-1.3 -4.1,-1.3 -6.7,-3.6 l 5.7,-11.1 q 1.8,1.6 4.15,2.5 2.35,0.9 4.65,0.9 3.2,0 5.2,-1.55 2,-1.55 3.6,-5.15 L 274.3,0.4 251,-53.8 h 16.1 l 15.1,36.5 z" />
  </g>
</svg>
